<svg width="64" height="64" viewBox="0 0 64 64" fill="none" xmlns="http://www.w3.org/2000/svg">
<rect width="64" height="64" fill="white"/>
<path d="M16.4918 27.9216C16.4918 27.9216 15.7438 27.9962 15.7438 28.8915C15.7438 29.7868 16.4918 29.8614 16.4918 29.8614H33.0228C33.0228 29.8614 33.3968 29.936 33.3968 30.4583C33.3968 30.9806 33.0228 31.0552 33.0228 31.0552H21.4287C21.4287 31.0552 20.8303 31.0552 20.8303 31.8759C20.8303 32.6966 21.4287 32.6966 21.4287 32.6966H27.2631H33.0228C33.0228 32.6966 33.3968 32.6966 33.3968 33.1442C33.3968 33.5919 33.0228 33.5919 33.0228 33.5919H30.4047H27.7119C27.7119 33.5919 26.8891 33.6665 26.8891 34.5618C26.8891 35.4571 27.7119 35.5317 27.7119 35.5317H48.3569C48.3569 35.5317 50.6009 39.3368 54.7897 39.2622C58.9785 39.1875 60.9982 35.9794 60.9982 35.9794H53.1441L50.7505 31.8013L53.1441 27.6232H60.9982C60.9982 27.6232 58.6045 24.1912 54.7897 24.1912C50.9749 24.1912 48.3569 27.9216 48.3569 27.9216H16.4918Z" fill="url(#paint0_linear_47_2)"/>
<path d="M5.42121 23.8183L9.68484 24.4898L11.6297 21.8038L9.68484 17.9242L13.3501 15.2383L16.4917 18.2972L19.6333 17.2527L20.3065 13H24.9442L25.6174 17.2527L28.6094 18.2972L31.751 15.2383L35.491 17.9988L33.5462 21.7292L35.491 24.4898L39.7547 23.8183L40.8019 26.355H31.4518C31.4518 26.355 28.1652 21.7616 23.4481 21.4308C18.5565 21.0878 12.2281 25.1193 12.2281 31.6522C12.2281 38.0686 17.2958 42.1907 22.1017 41.9482C28.9086 41.7244 31.4518 37.0987 31.4518 37.0987H40.8019L39.7547 39.7846L35.491 39.1877L33.5462 41.9482L35.491 45.6041L31.751 48.3646L28.6094 45.3056L25.6174 46.2009L24.9442 50.6029H20.1569L19.3341 46.2009L16.4917 45.3056L13.3501 48.3646L9.68484 45.6041L11.5549 41.7244L9.68484 39.1877L5.42121 39.9338L4 35.3827L7.74003 33.2936V30.0108L4 28.1456L5.42121 23.8183Z" fill="url(#paint1_linear_47_2)"/>
<defs>
<linearGradient id="paint0_linear_47_2" x1="15.7438" y1="24.1912" x2="24.781" y2="51.3255" gradientUnits="userSpaceOnUse">
<stop stop-color="#F9E335"/>
<stop offset="0.380108" stop-color="#F9D837"/>
<stop offset="0.65625" stop-color="#FACF39"/>
<stop offset="1" stop-color="#FAC53B"/>
</linearGradient>
<linearGradient id="paint1_linear_47_2" x1="22.4009" y1="13" x2="22.4009" y2="50.6029" gradientUnits="userSpaceOnUse">
<stop/>
<stop offset="0.385417" stop-color="#0E0E0E"/>
<stop offset="0.645833" stop-color="#191919"/>
<stop offset="1" stop-color="#1F1F1F"/>
</linearGradient>
</defs>
</svg>
